<svg width="344.000000" height="161.000000" viewBox="0 0 344 161" fill="none" xmlns="http://www.w3.org/2000/svg" xmlns:xlink="http://www.w3.org/1999/xlink">
	<desc>
			Created with Pixso.
	</desc>
	<defs>
		<linearGradient id="paint_linear_238_122_0" x1="63.676193" y1="230.730301" x2="58.597977" y2="89.784653" gradientUnits="userSpaceOnUse">
			<stop stop-color="#0D9AFF" stop-opacity="0.011765"/>
			<stop offset="1.000000" stop-color="#0D9AFF" stop-opacity="0.121569"/>
		</linearGradient>
		<linearGradient id="paint_linear_238_123_0" x1="13.304779" y1="136.483780" x2="136.599579" y2="105.295090" gradientUnits="userSpaceOnUse">
			<stop offset="0.158406" stop-color="#A5BDFF" stop-opacity="0.458824"/>
			<stop offset="1.000000" stop-color="#A5BDFF" stop-opacity="0.000000"/>
		</linearGradient>
		<linearGradient id="paint_linear_238_132_0" x1="293.648743" y1="205.265671" x2="289.789124" y2="98.226540" gradientUnits="userSpaceOnUse">
			<stop stop-color="#0D9AFF" stop-opacity="0.011765"/>
			<stop offset="1.000000" stop-color="#0D9AFF" stop-opacity="0.121569"/>
		</linearGradient>
		<linearGradient id="paint_linear_238_133_0" x1="254.490662" y1="131.204742" x2="350.308929" y2="106.594025" gradientUnits="userSpaceOnUse">
			<stop offset="0.158406" stop-color="#A5BDFF" stop-opacity="0.458824"/>
			<stop offset="1.000000" stop-color="#A5BDFF" stop-opacity="0.000000"/>
		</linearGradient>
		<linearGradient id="paint_linear_238_138_0" x1="185.056290" y1="57.884674" x2="184.138489" y2="2.784653" gradientUnits="userSpaceOnUse">
			<stop stop-color="#0D9AFF" stop-opacity="0.470588"/>
			<stop offset="1.000000" stop-color="#0D9AFF" stop-opacity="0.168627"/>
		</linearGradient>
		<linearGradient id="paint_linear_238_141_0" x1="241.813477" y1="84.597282" x2="241.097504" y2="42.281239" gradientUnits="userSpaceOnUse">
			<stop stop-color="#0F9BFF" stop-opacity="0.380392"/>
			<stop offset="1.000000" stop-color="#0D9AFF" stop-opacity="0.121569"/>
			<stop offset="1.000000" stop-color="#0D9AFF" stop-opacity="0.521569"/>
		</linearGradient>
		<linearGradient id="paint_linear_238_142_0" x1="125.583000" y1="83.251091" x2="124.867012" y2="40.935047" gradientUnits="userSpaceOnUse">
			<stop stop-color="#0F9BFF" stop-opacity="0.380392"/>
			<stop offset="1.000000" stop-color="#0D9AFF" stop-opacity="0.121569"/>
			<stop offset="1.000000" stop-color="#0D9AFF" stop-opacity="0.521569"/>
		</linearGradient>
		<linearGradient id="paint_linear_238_144_0" x1="-21540.953125" y1="-165.000000" x2="-21599.214844" y2="-165.500000" gradientUnits="userSpaceOnUse">
			<stop stop-color="#0146FE"/>
			<stop offset="1.000000" stop-color="#0146FE" stop-opacity="0.000000"/>
		</linearGradient>
		<linearGradient id="paint_linear_238_145_0" x1="21893.777344" y1="-152.500000" x2="21952.039062" y2="-153.000000" gradientUnits="userSpaceOnUse">
			<stop stop-color="#0146FE"/>
			<stop offset="1.000000" stop-color="#0146FE" stop-opacity="0.000000"/>
		</linearGradient>
	</defs>
	<path id="Vector" d="M57.83 160.2L2.97 128.77C0.96 127.61 1.21 125.6 3.53 124.28L61.67 90.88C63.99 89.55 67.51 89.41 69.51 90.56L124.38 122C126.38 123.15 126.14 125.16 123.82 126.49L65.67 159.88C63.35 161.22 59.84 161.36 57.83 160.2Z" fill="url(#paint_linear_238_122_0)" fill-opacity="1.000000" fill-rule="nonzero"/>
	<path id="Vector" d="M61.25 149.88C59.69 149.88 58.17 149.55 57.02 148.89L2.16 117.46C0.78 116.67 0 115.45 0 114.11C0 112.6 0.99 111.17 2.73 110.18L60.88 76.78C63.69 75.16 67.85 75.02 70.35 76.46L125.21 107.89C126.59 108.68 127.38 109.9 127.38 111.24C127.38 112.75 126.38 114.18 124.64 115.17L66.5 148.57C64.99 149.44 63.08 149.88 61.26 149.88L61.25 149.88ZM58.64 146.1C60.15 146.96 63.06 146.81 64.86 145.78L123 112.38C123.82 111.91 124.11 111.44 124.11 111.24C124.11 111.11 123.94 110.9 123.57 110.68L68.71 79.25C67.2 78.39 64.3 78.54 62.49 79.57L4.35 112.97C3.54 113.44 3.24 113.91 3.24 114.11C3.24 114.23 3.41 114.45 3.79 114.67L58.65 146.1L58.64 146.1Z" fill="url(#paint_linear_238_123_0)" fill-opacity="1.000000" fill-rule="evenodd"/>
	<path id="Vector" d="M91.19 85.01C95.4 99.99 86.62 115.67 71.17 119.85C56.08 124.03 40.28 115.32 36.06 99.99C31.85 85.01 40.63 69.33 56.08 65.15C71.17 60.97 86.98 69.68 91.19 85.01Z" fill="#0146FE" fill-opacity="1.000000" fill-rule="nonzero"/>
	<path id="Vector" d="M75.94 83.08L72.83 86.89L69.73 83.08L71.91 83.08L71.91 82.15C71.9 81.42 71.61 80.71 71.09 80.19C70.57 79.67 69.86 79.37 69.13 79.37L68.2 79.37L68.2 77.52L69.13 77.52C70.35 77.52 71.53 78.01 72.4 78.88C73.27 79.75 73.76 80.93 73.76 82.15L73.76 83.08L75.94 83.08ZM57.08 94.2L51.22 94.2C50.81 94.2 50.42 94.03 50.13 93.74C49.84 93.45 49.67 93.06 49.67 92.65L49.67 80.92C49.67 80.51 49.84 80.12 50.13 79.83C50.42 79.54 50.81 79.37 51.22 79.37L62.95 79.37C63.36 79.37 63.75 79.54 64.04 79.83C64.33 80.12 64.49 80.51 64.5 80.92L64.5 86.78L66.35 86.78L66.35 80.92C66.35 80.02 65.99 79.15 65.35 78.52C64.72 77.88 63.85 77.52 62.95 77.52L51.22 77.52C50.32 77.52 49.45 77.88 48.82 78.52C48.18 79.15 47.82 80.02 47.82 80.92L47.82 92.65C47.82 93.55 48.18 94.42 48.82 95.05C49.45 95.69 50.32 96.05 51.22 96.05L57.08 96.05L57.08 94.2ZM60.29 86.87C60.63 86.25 60.9 85.6 61.12 84.93L62.64 84.93L62.64 83.08L58.05 83.08L58.28 82.84L56.32 80.88L55.01 82.19L55.9 83.08L51.53 83.08L51.53 84.93L52.95 84.93C53.47 86.6 54.37 88.13 55.58 89.4C54.56 90.06 53.44 90.54 52.26 90.83L52.71 92.62C54.26 92.25 55.73 91.58 57.03 90.65C57.05 90.66 57.08 90.68 57.1 90.69C57.12 89.79 57.45 88.92 58.03 88.22C58.61 87.53 59.41 87.05 60.29 86.87ZM54.92 84.93L59.15 84.93C58.68 86.17 57.95 87.29 57.02 88.22C56.09 87.29 55.37 86.17 54.92 84.93ZM74.11 107.16L62.29 107.16C61.4 107.16 60.55 106.81 59.92 106.18C59.29 105.55 58.94 104.7 58.94 103.82L58.94 91.99C58.94 91.1 59.29 90.25 59.92 89.62C60.55 88.99 61.4 88.64 62.29 88.64L74.11 88.64C75 88.64 75.85 88.99 76.48 89.62C77.11 90.25 77.46 91.1 77.46 91.99L77.46 103.82C77.46 104.7 77.11 105.55 76.48 106.18C75.85 106.81 75 107.16 74.11 107.16ZM62.29 90.49C61.89 90.49 61.51 90.65 61.23 90.93C60.95 91.21 60.79 91.59 60.79 91.99L60.79 103.82C60.79 104.21 60.95 104.59 61.23 104.87C61.51 105.15 61.89 105.31 62.29 105.31L74.11 105.31C74.51 105.31 74.89 105.15 75.17 104.87C75.45 104.59 75.61 104.21 75.61 103.82L75.61 91.99C75.61 91.59 75.45 91.21 75.17 90.93C74.89 90.65 74.51 90.49 74.11 90.49L62.29 90.49ZM72.18 103.35L73.85 102.54L68.2 90.97L62.55 102.54L64.22 103.35L65.07 101.61L71.33 101.61L72.18 103.35ZM65.97 99.75L68.2 95.2L70.43 99.75L65.97 99.75ZM57.08 105.31L57.08 107.16L56.16 107.16C54.93 107.16 53.75 106.67 52.88 105.81C52.02 104.94 51.53 103.76 51.53 102.53L51.53 101.61L49.35 101.61L52.45 97.79L55.56 101.61L53.38 101.61L53.38 102.53C53.38 103.27 53.67 103.98 54.19 104.5C54.71 105.02 55.42 105.31 56.16 105.31L57.08 105.31Z" fill="#FFFFFF" fill-opacity="1.000000" fill-rule="nonzero"/>
	<path id="Vector" d="M289.1 151.32L248.17 127.86C245.65 126.43 245.97 123.91 248.87 122.25L288.39 99.6C291.29 97.94 295.68 97.75 298.19 99.2L339.12 122.66C341.64 124.09 341.31 126.61 338.42 128.27L298.9 150.92C295.99 152.58 291.6 152.77 289.1 151.32Z" fill="url(#paint_linear_238_132_0)" fill-opacity="1.000000" fill-rule="nonzero"/>
	<path id="Vector" d="M293.38 141.77C291.38 141.77 289.46 141.35 287.94 140.48L247 117.02C245.19 115.98 244.15 114.36 244.15 112.58C244.15 110.59 245.44 108.71 247.7 107.4L287.23 84.75C290.88 82.66 296.1 82.48 299.35 84.35L340.28 107.81C342.1 108.85 343.14 110.47 343.14 112.25C343.14 114.24 341.85 116.13 339.58 117.43L300.06 140.08C298.1 141.21 295.68 141.77 293.37 141.77L293.38 141.77ZM290.26 136.49C292.07 137.52 295.57 137.33 297.74 136.09L337.26 113.44C338.25 112.87 338.49 112.36 338.49 112.26C338.48 112.24 338.35 112.05 337.96 111.83L297.02 88.37C295.22 87.33 291.73 87.52 289.55 88.77L250.03 111.41C249.03 111.98 248.8 112.5 248.8 112.59C248.81 112.61 248.94 112.81 249.33 113.03L290.26 136.49Z" fill="url(#paint_linear_238_133_0)" fill-opacity="1.000000" fill-rule="evenodd"/>
	<path id="Vector" d="M293.54 92.46C299.02 92.46 303.45 88.06 303.45 82.63C303.45 77.2 299.02 72.8 293.54 72.8C288.07 72.8 283.63 77.2 283.63 82.63C283.63 88.06 288.07 92.46 293.54 92.46ZM300.48 94.92L299.19 94.92C297.47 95.71 295.56 96.15 293.54 96.15C291.53 96.15 289.62 95.71 287.9 94.92L286.6 94.92C280.86 94.92 276.2 99.55 276.2 105.25L276.2 108.44C276.2 110.48 277.86 112.13 279.92 112.13L307.17 112.13C309.22 112.13 310.89 110.48 310.89 108.44L310.89 105.25C310.89 99.55 306.23 94.92 300.48 94.92Z" fill="#9DB8FF" fill-opacity="1.000000" fill-rule="nonzero"/>
	<g opacity="0.000000">
		<path id="Vector" d="M168.22 0L201.88 0L201.88 33.4L168.22 33.4L168.22 0Z" fill="#FFFFFF" fill-opacity="1.000000" fill-rule="nonzero"/>
	</g>
	<path id="Vector" d="M195.91 10.2L189.68 3.24C189.55 3.1 189.39 2.98 189.21 2.9C189.03 2.82 188.84 2.78 188.64 2.78L177.42 2.78C176.95 2.77 176.49 2.86 176.06 3.03C175.63 3.2 175.23 3.46 174.9 3.78C174.57 4.1 174.3 4.49 174.12 4.91C173.93 5.34 173.83 5.8 173.83 6.26L173.83 27.14C173.83 27.6 173.93 28.06 174.12 28.48C174.3 28.91 174.57 29.29 174.9 29.61C175.23 29.94 175.63 30.19 176.06 30.36C176.49 30.54 176.95 30.62 177.42 30.62L192.68 30.62C193.15 30.62 193.61 30.54 194.04 30.36C194.48 30.19 194.87 29.94 195.2 29.61C195.54 29.29 195.8 28.91 195.99 28.48C196.17 28.06 196.27 27.6 196.27 27.14L196.27 11.13C196.27 10.79 196.14 10.45 195.91 10.2ZM187.86 5.56L193.1 11.13L188.9 11.13C188.75 11.12 188.6 11.08 188.47 11.02C188.34 10.96 188.22 10.87 188.13 10.76C188.03 10.64 187.96 10.52 187.91 10.38C187.86 10.24 187.85 10.09 187.86 9.95L187.86 5.56Z" fill="url(#paint_linear_238_138_0)" fill-opacity="1.000000" fill-rule="nonzero"/>
	<g opacity="0.000000">
		<path id="Vector" d="M224.98 46.28L258.64 46.28L258.64 79.69L224.98 79.69L224.98 46.28Z" fill="#FFFFFF" fill-opacity="1.000000" fill-rule="nonzero"/>
	</g>
	<path id="Vector" d="M250.28 47.97L245.42 42.63C245.32 42.52 245.19 42.43 245.05 42.37C244.91 42.31 244.76 42.28 244.61 42.28L235.86 42.28C235.49 42.27 235.13 42.34 234.79 42.47C234.46 42.6 234.15 42.8 233.89 43.05C233.63 43.29 233.42 43.59 233.28 43.92C233.14 44.24 233.06 44.59 233.06 44.95L233.06 60.98C233.06 61.34 233.14 61.69 233.28 62.01C233.42 62.34 233.63 62.64 233.89 62.88C234.15 63.13 234.46 63.33 234.79 63.46C235.13 63.59 235.49 63.66 235.86 63.65L247.76 63.65C248.12 63.66 248.49 63.59 248.82 63.46C249.16 63.33 249.47 63.13 249.73 62.88C249.99 62.64 250.2 62.34 250.34 62.01C250.48 61.69 250.56 61.34 250.56 60.98L250.56 48.69C250.56 48.42 250.46 48.17 250.28 47.97ZM244 44.41L248.09 48.69L244.81 48.69C244.69 48.68 244.58 48.65 244.48 48.6C244.37 48.56 244.28 48.49 244.21 48.4C244.13 48.32 244.07 48.22 244.04 48.11C244 48.01 243.99 47.89 244 47.78L244 44.41Z" fill="url(#paint_linear_238_141_0)" fill-opacity="1.000000" fill-rule="nonzero"/>
	<path id="Vector" d="M134.05 46.63L129.19 41.28C129.09 41.17 128.96 41.08 128.82 41.02C128.68 40.96 128.53 40.93 128.38 40.93L119.63 40.93C119.26 40.93 118.9 40.99 118.56 41.12C118.23 41.26 117.92 41.45 117.66 41.7C117.4 41.95 117.19 42.24 117.05 42.57C116.91 42.9 116.83 43.25 116.83 43.6L116.83 59.64C116.83 59.99 116.91 60.34 117.05 60.67C117.19 60.99 117.4 61.29 117.66 61.54C117.92 61.79 118.23 61.98 118.56 62.11C118.9 62.25 119.26 62.31 119.63 62.31L131.53 62.31C131.89 62.31 132.25 62.25 132.59 62.11C132.93 61.98 133.24 61.79 133.5 61.54C133.76 61.29 133.97 60.99 134.11 60.67C134.25 60.34 134.33 59.99 134.33 59.64L134.33 47.34C134.33 47.08 134.23 46.82 134.05 46.63ZM127.77 43.07L131.86 47.34L128.58 47.34C128.46 47.34 128.35 47.31 128.25 47.26C128.14 47.21 128.05 47.14 127.98 47.06C127.9 46.97 127.84 46.87 127.81 46.77C127.77 46.66 127.76 46.55 127.77 46.43L127.77 43.07Z" fill="url(#paint_linear_238_142_0)" fill-opacity="1.000000" fill-rule="nonzero"/>
	<path id="Arrow 2" d="M201.21 102.87L197.26 98.84C196.87 98.43 196.87 97.81 197.28 97.41C197.68 97.02 198.31 97.03 198.7 97.43L204.35 103.2C204.75 103.6 204.74 104.23 204.34 104.63L198.59 110.26C198.19 110.65 197.56 110.64 197.17 110.24C196.77 109.83 196.78 109.21 197.18 108.81L201.19 104.88L149.21 104.24L149.23 102.23L201.21 102.87Z" fill="url(#paint_linear_238_144_0)" fill-opacity="1.000000" fill-rule="evenodd"/>
	<path id="Arrow 3" d="M151.64 117.65L155.59 113.62C155.99 113.22 155.98 112.59 155.58 112.2C155.18 111.81 154.55 111.81 154.15 112.22L148.5 117.99C148.11 118.39 148.11 119.02 148.51 119.41L154.26 125.04C154.66 125.44 155.29 125.43 155.69 125.03C156.08 124.62 156.08 123.99 155.67 123.6L151.66 119.67L203.64 119.02L203.63 117.01L151.64 117.65Z" fill="url(#paint_linear_238_145_0)" fill-opacity="1.000000" fill-rule="evenodd"/>
</svg>
