<svg width="367.000000" height="101.000000" viewBox="0 0 367 101" fill="none" xmlns="http://www.w3.org/2000/svg" xmlns:xlink="http://www.w3.org/1999/xlink">
	<desc>
			Created with Pixso.
	</desc>
	<defs>
		<filter id="filter_238_205_dd" x="-0.516602" y="68.924805" width="119.583496" height="32.066895" filterUnits="userSpaceOnUse" color-interpolation-filters="sRGB">
			<feFlood flood-opacity="0" result="BackgroundImageFix"/>
			<feColorMatrix in="SourceAlpha" type="matrix" values="0 0 0 0 0 0 0 0 0 0 0 0 0 0 0 0 0 0 127 0" result="hardAlpha"/>
			<feOffset dx="0" dy="4.51684"/>
			<feGaussianBlur stdDeviation="1.50561"/>
			<feComposite in2="hardAlpha" operator="out" k2="-1" k3="1"/>
			<feColorMatrix type="matrix" values="0 0 0 0 0 0 0 0 0 0 0 0 0 0 0 0 0 0 0.078 0"/>
			<feBlend mode="normal" in2="BackgroundImageFix" result="effect_dropShadow_1"/>
			<feBlend mode="normal" in="SourceGraphic" in2="effect_dropShadow_1" result="shape"/>
		</filter>
		<linearGradient id="paint_linear_238_194_0" x1="307.534363" y1="159.956726" x2="302.910461" y2="30.701160" gradientUnits="userSpaceOnUse">
			<stop stop-color="#0D9AFF" stop-opacity="0.011765"/>
			<stop offset="1.000000" stop-color="#0D9AFF" stop-opacity="0.121569"/>
		</linearGradient>
		<linearGradient id="paint_linear_238_195_0" x1="260.619263" y1="70.524445" x2="375.416534" y2="40.805634" gradientUnits="userSpaceOnUse">
			<stop offset="0.158406" stop-color="#A5BDFF" stop-opacity="0.458824"/>
			<stop offset="1.000000" stop-color="#A5BDFF" stop-opacity="0.000000"/>
		</linearGradient>
		<linearGradient id="paint_linear_238_200_0" x1="63.302414" y1="159.956726" x2="58.678482" y2="30.701160" gradientUnits="userSpaceOnUse">
			<stop stop-color="#0D9AFF" stop-opacity="0.011765"/>
			<stop offset="1.000000" stop-color="#0D9AFF" stop-opacity="0.121569"/>
		</linearGradient>
		<linearGradient id="paint_linear_238_201_0" x1="16.387810" y1="70.524445" x2="131.185074" y2="40.805634" gradientUnits="userSpaceOnUse">
			<stop offset="0.158406" stop-color="#A5BDFF" stop-opacity="0.458824"/>
			<stop offset="1.000000" stop-color="#A5BDFF" stop-opacity="0.000000"/>
		</linearGradient>
		<linearGradient id="paint_linear_238_203_0" x1="-25899.132812" y1="-285.000000" x2="-25969.095703" y2="-286.000000" gradientUnits="userSpaceOnUse">
			<stop stop-color="#0146FE"/>
			<stop offset="1.000000" stop-color="#0146FE" stop-opacity="0.000000"/>
		</linearGradient>
		<linearGradient id="paint_linear_238_204_0" x1="26258.156250" y1="-271.000000" x2="26328.119141" y2="-272.000000" gradientUnits="userSpaceOnUse">
			<stop stop-color="#0146FE"/>
			<stop offset="1.000000" stop-color="#0146FE" stop-opacity="0.000000"/>
		</linearGradient>
	</defs>
	<path id="Vector" d="M302.09 94.82L253.05 66.49C250.03 64.75 250.42 61.71 253.88 59.71L301.23 32.36C304.72 30.35 309.97 30.13 312.97 31.87L362.01 60.2C365.03 61.94 364.64 64.98 361.18 66.98L313.82 94.33C310.34 96.34 305.09 96.56 302.09 94.82Z" fill="url(#paint_linear_238_194_0)" fill-opacity="1.000000" fill-rule="nonzero"/>
	<path id="Vector" d="M307.22 83.29C304.81 83.29 302.51 82.77 300.69 81.72L251.65 53.39C249.48 52.14 248.23 50.18 248.23 48.03C248.23 45.63 249.78 43.36 252.49 41.78L299.84 14.43C304.22 11.9 310.47 11.69 314.36 13.95L363.4 42.28C365.58 43.53 366.83 45.49 366.83 47.64C366.83 50.04 365.28 52.33 362.57 53.89L315.22 81.24C312.87 82.6 309.97 83.29 307.2 83.29L307.22 83.29ZM303.48 76.9C305.64 78.15 309.83 77.93 312.43 76.42L359.78 49.07C360.97 48.39 361.26 47.76 361.26 47.65C361.24 47.62 361.09 47.39 360.62 47.12L311.58 18.79C309.42 17.54 305.24 17.77 302.63 19.28L255.28 46.63C254.08 47.31 253.8 47.93 253.8 48.05C253.81 48.08 253.97 48.32 254.44 48.57L303.48 76.9Z" fill="url(#paint_linear_238_195_0)" fill-opacity="1.000000" fill-rule="evenodd"/>
	<path id="Vector" d="M307.41 23.74C313.97 23.74 319.28 18.43 319.28 11.87C319.28 5.31 313.97 0 307.41 0C300.85 0 295.53 5.31 295.53 11.87C295.53 18.43 300.85 23.74 307.41 23.74ZM315.72 26.71L314.17 26.71C312.11 27.66 309.82 28.2 307.41 28.2C305 28.2 302.71 27.66 300.64 26.71L299.1 26.71C292.21 26.71 286.63 32.3 286.63 39.18L286.63 43.04C286.63 45.5 288.62 47.49 291.08 47.49L323.73 47.49C326.19 47.49 328.19 45.5 328.19 43.04L328.19 39.18C328.19 32.3 322.6 26.71 315.72 26.71Z" fill="#9DB8FF" fill-opacity="1.000000" fill-rule="nonzero"/>
	<path id="Vector" d="M57.85 94.82L8.81 66.49C5.8 64.75 6.18 61.71 9.65 59.71L57 32.36C60.48 30.35 65.74 30.13 68.74 31.87L117.78 60.2C120.79 61.94 120.41 64.98 116.94 66.98L69.59 94.33C66.11 96.34 60.85 96.56 57.85 94.82Z" fill="url(#paint_linear_238_200_0)" fill-opacity="1.000000" fill-rule="nonzero"/>
	<path id="Vector" d="M62.98 83.29C60.58 83.29 58.28 82.77 56.46 81.72L7.42 53.39C5.25 52.14 4 50.18 4 48.03C4 45.63 5.54 43.36 8.26 41.78L55.61 14.43C59.99 11.9 66.24 11.69 70.13 13.95L119.17 42.28C121.35 43.53 122.6 45.49 122.6 47.64C122.6 50.04 121.05 52.33 118.33 53.89L70.98 81.24C68.64 82.6 65.74 83.29 62.97 83.29L62.98 83.29ZM59.25 76.9C61.41 78.15 65.6 77.93 68.2 76.42L115.55 49.07C116.74 48.39 117.03 47.76 117.03 47.65C117.01 47.62 116.86 47.39 116.39 47.12L67.35 18.79C65.19 17.54 61.01 17.77 58.39 19.28L11.04 46.63C9.85 47.31 9.57 47.93 9.57 48.05C9.58 48.08 9.74 48.32 10.21 48.57L59.25 76.9Z" fill="url(#paint_linear_238_201_0)" fill-opacity="1.000000" fill-rule="evenodd"/>
	<path id="Arrow 2" d="M209.29 35.05L204.55 30.21C204.08 29.72 204.08 28.97 204.57 28.5C205.05 28.02 205.8 28.03 206.28 28.52L213.06 35.45C213.54 35.93 213.53 36.68 213.05 37.16L206.15 43.92C205.66 44.39 204.91 44.38 204.44 43.9C203.96 43.41 203.97 42.66 204.45 42.19L209.27 37.47L146.85 36.7L146.87 34.28L209.29 35.05Z" fill="url(#paint_linear_238_203_0)" fill-opacity="1.000000" fill-rule="evenodd"/>
	<path id="Arrow 3" d="M149.77 52.8L154.51 47.96C154.98 47.48 154.98 46.73 154.49 46.25C154.01 45.78 153.26 45.79 152.78 46.27L146 53.2C145.52 53.69 145.53 54.44 146.01 54.92L152.91 61.68C153.39 62.15 154.15 62.14 154.62 61.65C155.1 61.17 155.09 60.42 154.61 59.94L149.79 55.22L212.21 54.44L212.19 52.02L149.77 52.8Z" fill="url(#paint_linear_238_204_0)" fill-opacity="1.000000" fill-rule="evenodd"/>
	<g filter="url(#filter_238_205_dd)">
		<rect id="Frame 1321316609" rx="11.516842" width="110.550522" height="23.033684" transform="translate(4.000000 68.924805)" fill="#FFFFFF" fill-opacity="1.000000"/>
		<g opacity="0.800000">
			<path id="Lingvanex bot" d="M21.72 75.47C21.72 76.02 21.25 76.47 20.66 76.47C20.07 76.47 19.58 76.02 19.58 75.47C19.58 74.91 20.07 74.46 20.66 74.46C21.25 74.46 21.72 74.91 21.72 75.47ZM18.31 85.44L11.8 85.44L11.8 74.97L13.7 74.97L13.7 83.85L18.31 83.85L18.31 85.44ZM87.03 85.44L85.21 85.44L85.21 74.97L87.06 74.97L87.06 78.88L87.14 78.88C87.42 78.32 88 77.48 89.38 77.48C91.2 77.48 92.62 78.9 92.62 81.52C92.62 84.11 91.24 85.57 89.39 85.57C88.04 85.57 87.43 84.77 87.14 84.2L87.03 84.2L87.03 85.44ZM105.04 77.58L106.59 77.58L106.59 79.02L105.04 79.02L105.04 83.08C105.04 83.82 105.41 83.99 105.88 83.99C106.11 83.99 106.32 83.94 106.42 83.92L106.73 85.36C106.53 85.43 106.17 85.53 105.64 85.55C104.25 85.58 103.18 84.86 103.19 83.38L103.19 79.02L102.07 79.02L102.07 77.58L103.19 77.58L103.19 75.7L105.04 75.7L105.04 77.58ZM26.85 79.05C25.87 79.05 25.19 79.7 25.19 80.84L25.19 85.44L23.34 85.44L23.34 77.58L25.1 77.58L25.1 78.92L25.2 78.92C25.55 78.05 26.36 77.48 27.54 77.48C29.16 77.48 30.23 78.56 30.23 80.44L30.23 85.44L28.38 85.44L28.38 80.72C28.38 79.68 27.8 79.05 26.85 79.05ZM39.07 85.56C39.07 87.57 37.51 88.54 35.38 88.54C33.38 88.54 32.26 87.66 31.92 86.56L33.58 86.16C33.81 86.62 34.3 87.15 35.42 87.15C36.47 87.15 37.24 86.67 37.24 85.51L37.24 84.03L37.14 84.03C36.86 84.6 36.23 85.32 34.88 85.32C33.07 85.32 31.65 84.05 31.65 81.49C31.65 78.9 33.07 77.48 34.89 77.48C36.27 77.48 36.86 78.32 37.14 78.88L37.25 78.88L37.25 77.58L39.07 77.58L39.07 85.56ZM53.31 84.36C52.97 85.02 52.24 85.6 51 85.6C49.51 85.6 48.38 84.78 48.38 83.23C48.38 81.47 49.83 81.01 51.36 80.85C52.74 80.7 53.3 80.67 53.3 80.14L53.3 80.11C53.3 79.34 52.83 78.9 51.97 78.9C51.07 78.9 50.55 79.36 50.36 79.89L48.64 79.65C49.04 78.22 50.31 77.48 51.96 77.48C53.46 77.48 55.15 78.11 55.15 80.18L55.15 85.44L53.37 85.44L53.37 84.36L53.31 84.36ZM60.39 79.05C59.41 79.05 58.72 79.7 58.72 80.84L58.72 85.44L56.88 85.44L56.88 77.58L58.64 77.58L58.64 78.92L58.74 78.92C59.09 78.05 59.9 77.48 61.08 77.48C62.7 77.48 63.77 78.56 63.76 80.44L63.76 85.44L61.92 85.44L61.92 80.72C61.92 79.68 61.34 79.05 60.39 79.05ZM72.4 83.33C72.07 84.7 70.81 85.59 68.99 85.59C66.62 85.59 65.17 84.02 65.17 81.56C65.17 79.13 66.64 77.48 68.89 77.48C70.82 77.48 72.48 78.69 72.48 81.45L72.48 82.02L67.01 82.02C67.02 83.36 67.82 84.15 69.01 84.15C69.81 84.15 70.42 83.8 70.67 83.13L72.4 83.33ZM101.25 81.54C101.25 83.97 99.79 85.59 97.48 85.59C95.18 85.59 93.72 83.97 93.72 81.54C93.72 79.11 95.18 77.48 97.48 77.48C99.79 77.48 101.25 79.11 101.25 81.54ZM21.58 85.44L19.73 85.44L19.73 77.58L21.58 77.58L21.58 85.44ZM45.87 77.58L47.84 77.58L45.05 85.44L43 85.44L40.2 77.58L42.18 77.58L43.98 83.42L44.06 83.42L45.87 77.58ZM73.3 77.58L75.26 77.58L76.84 80.48L78.45 77.58L80.41 77.58L78.04 81.51L80.45 85.44L78.5 85.44L76.84 82.61L75.2 85.44L73.23 85.44L75.63 81.51L73.3 77.58ZM68.91 78.92C67.81 78.92 67.07 79.77 67.01 80.77L70.7 80.77C70.69 79.7 69.98 78.92 68.91 78.92ZM95.6 81.54C95.6 82.97 96.22 84.11 97.49 84.11C98.74 84.11 99.37 82.97 99.37 81.54C99.37 80.1 98.74 78.95 97.49 78.95C96.22 78.95 95.6 80.1 95.6 81.54ZM33.53 81.48C33.53 82.92 34.18 83.87 35.4 83.87C36.58 83.87 37.25 82.97 37.25 81.48C37.25 79.99 36.59 79 35.4 79C34.17 79 33.53 80.05 33.53 81.48ZM88.87 79C87.68 79 87.02 79.99 87.02 81.51C87.02 83.03 87.69 84.06 88.87 84.06C90.09 84.06 90.74 82.98 90.74 81.51C90.74 80.05 90.1 79 88.87 79ZM50.16 83.2C50.16 83.88 50.72 84.23 51.49 84.23C52.6 84.23 53.31 83.49 53.31 82.62L53.31 81.69C53.07 81.89 52.09 82.01 51.61 82.08C50.78 82.2 50.16 82.49 50.16 83.2Z" fill="#000000" fill-opacity="1.000000" fill-rule="evenodd"/>
		</g>
	</g>
	<path id="Vector" d="M76.29 38.42C79.27 38.42 81.69 40.84 81.69 43.83L81.69 45.89L81.68 45.89C81.57 48.22 80.94 51.14 78.32 53.52C75.46 56.13 70.53 57.83 62.27 57.83C54 57.83 49.07 56.13 46.22 53.52C43.6 51.14 42.96 48.22 42.86 45.89L42.84 45.89L42.84 43.83C42.84 40.84 45.26 38.42 48.25 38.42L76.29 38.42Z" fill="#9DB8FF" fill-opacity="1.000000" fill-rule="nonzero"/>
	<path id="Vector" d="M51.81 13.01C49.33 13.01 47.33 15.02 47.33 17.49L47.33 29.44C47.33 31.92 49.33 33.93 51.81 33.93L72.73 33.93C75.2 33.93 77.21 31.92 77.21 29.44L77.21 17.49C77.21 15.02 75.2 13.01 72.73 13.01L63.76 13.01C63.76 13.01 63.76 12.44 63.76 11.51C63.76 10.59 63.09 10.02 62.27 10.02C61.44 10.02 60.77 10.71 60.77 11.51L60.77 13.01L51.81 13.01ZM53.3 23.47C53.3 21.82 54.64 20.48 56.29 20.48C57.94 20.48 59.28 21.82 59.28 23.47C59.28 25.12 57.94 26.46 56.29 26.46C54.64 26.46 53.3 25.12 53.3 23.47ZM65.26 23.47C65.26 21.82 66.59 20.48 68.24 20.48C69.89 20.48 71.23 21.82 71.23 23.47C71.23 25.12 69.89 26.46 68.24 26.46C66.59 26.46 65.26 25.12 65.26 23.47Z" fill="#9DB8FF" fill-opacity="1.000000" fill-rule="nonzero"/>
</svg>
