<svg width="14.000000" height="18.000000" viewBox="0 0 14 18" fill="none" xmlns="http://www.w3.org/2000/svg" xmlns:xlink="http://www.w3.org/1999/xlink">
	<desc>
			Created with Pixso.
	</desc>
	<defs>
		<clipPath id="clip238_96">
			<rect id="profile 1" width="14.000000" height="18.000000" fill="white" fill-opacity="0"/>
		</clipPath>
	</defs>
	<rect id="profile 1" width="14.000000" height="18.000000" fill="#FFFFFF" fill-opacity="0"/>
	<g clip-path="url(#clip238_96)">
		<path id="Vector" d="M7.06 9.02C4.89 9.02 3.13 7.27 3.13 5.12C3.13 2.96 4.89 1.21 7.06 1.21C9.24 1.21 11 2.96 11 5.12C11 7.27 9.24 9.02 7.06 9.02Z" stroke="#666666" stroke-opacity="1.000000" stroke-width="1.500000" stroke-linejoin="round"/>
		<path id="Vector" d="M1 13.67C1.38 12.92 2.44 12.52 3.33 12.34C3.96 12.21 4.61 12.12 5.26 12.07C6.46 11.97 7.66 11.97 8.87 12.07C9.52 12.12 10.16 12.21 10.8 12.34C11.68 12.52 12.74 12.88 13.12 13.67C13.36 14.17 13.36 14.76 13.12 15.26C12.74 16.05 11.68 16.41 10.8 16.58C10.16 16.72 9.52 16.82 8.87 16.86C7.89 16.94 6.91 16.96 5.93 16.9C5.7 16.9 5.48 16.9 5.26 16.86C4.61 16.82 3.97 16.72 3.33 16.58C2.44 16.41 1.39 16.05 1 15.26C0.88 15.01 0.82 14.74 0.82 14.46C0.82 14.19 0.88 13.92 1 13.67Z" stroke="#666666" stroke-opacity="1.000000" stroke-width="1.500000" stroke-linejoin="round"/>
	</g>
</svg>
