<svg width="127.000000" height="27.000000" viewBox="0 0 127 27" fill="none" xmlns="http://www.w3.org/2000/svg" xmlns:xlink="http://www.w3.org/1999/xlink">
	<desc>
			Created with Pixso.
	</desc>
	<defs>
		<linearGradient id="paint_linear_238_84_0" x1="-6.060749" y1="32.205524" x2="28.521183" y2="-5.406784" gradientUnits="userSpaceOnUse">
			<stop stop-color="#3A5FF7"/>
		</linearGradient>
	</defs>
	<path id="Vector" d="M31.44 4.72L34.28 4.72L34.28 18.09L41.05 18.09L41.05 20.65L31.44 20.65L31.44 4.72Z" fill="#262C39" fill-opacity="1.000000" fill-rule="evenodd"/>
	<path id="Vector" d="M41.78 9.85L44.49 9.85L44.49 20.65L41.78 20.65L41.78 9.85ZM41.4 6.18C41.4 5.75 41.56 5.37 41.87 5.06C42.2 4.72 42.62 4.56 43.11 4.56C43.61 4.56 44.02 4.72 44.35 5.03C44.7 5.33 44.87 5.72 44.87 6.18C44.87 6.65 44.7 7.04 44.35 7.35C44.02 7.65 43.61 7.8 43.11 7.8C42.62 7.8 42.2 7.64 41.87 7.33C41.56 7 41.4 6.62 41.4 6.18Z" fill="#262C39" fill-opacity="1.000000" fill-rule="evenodd"/>
	<path id="Vector" d="M46.46 9.85L49.03 9.85L49.03 11.58L49.07 11.58C49.33 11.04 49.72 10.58 50.24 10.19C50.77 9.78 51.48 9.58 52.38 9.58C53.1 9.58 53.71 9.7 54.2 9.94C54.71 10.18 55.13 10.49 55.44 10.88C55.76 11.27 55.98 11.73 56.12 12.23C56.25 12.75 56.32 13.28 56.32 13.83L56.32 20.65L53.62 20.65L53.62 15.18C53.62 14.88 53.6 14.55 53.57 14.19C53.54 13.82 53.46 13.47 53.33 13.16C53.21 12.83 53.01 12.56 52.74 12.35C52.47 12.12 52.1 12.01 51.64 12.01C51.19 12.01 50.8 12.08 50.49 12.23C50.19 12.39 49.93 12.59 49.72 12.84C49.53 13.1 49.39 13.39 49.3 13.72C49.21 14.05 49.16 14.4 49.16 14.76L49.16 20.65L46.46 20.65L46.46 9.85Z" fill="#262C39" fill-opacity="1.000000" fill-rule="evenodd"/>
	<path id="Vector" d="M69.38 9.85L69.38 19.68C69.38 20.66 69.26 21.54 69.02 22.32C68.78 23.11 68.4 23.78 67.89 24.32C67.4 24.88 66.77 25.3 66 25.6C65.24 25.9 64.33 26.05 63.28 26.05C62.27 26.05 61.32 25.93 60.42 25.67C59.52 25.42 58.69 24.95 57.92 24.28L59.54 22.07C60.08 22.57 60.64 22.95 61.23 23.22C61.82 23.49 62.49 23.62 63.26 23.62C63.9 23.62 64.44 23.53 64.88 23.35C65.33 23.17 65.68 22.93 65.93 22.61C66.2 22.3 66.39 21.91 66.5 21.46C66.62 21.03 66.68 20.54 66.68 20L66.68 19.21L66.63 19.21C66.24 19.74 65.72 20.13 65.08 20.41C64.43 20.66 63.77 20.79 63.1 20.79C62.29 20.79 61.55 20.64 60.89 20.36C60.23 20.06 59.66 19.66 59.18 19.17C58.72 18.67 58.36 18.09 58.1 17.41C57.85 16.74 57.72 16.02 57.72 15.25C57.72 14.46 57.84 13.71 58.08 13.02C58.32 12.33 58.67 11.73 59.14 11.22C59.6 10.71 60.16 10.31 60.8 10.03C61.46 9.73 62.21 9.58 63.05 9.58C63.82 9.58 64.53 9.73 65.19 10.03C65.85 10.33 66.38 10.81 66.77 11.47L66.81 11.47L66.81 9.85L69.38 9.85ZM63.62 12.01C63.14 12.01 62.7 12.09 62.31 12.26C61.92 12.41 61.58 12.62 61.3 12.91C61.03 13.18 60.81 13.52 60.64 13.92C60.5 14.31 60.42 14.75 60.42 15.23C60.42 15.66 60.5 16.07 60.64 16.44C60.81 16.82 61.04 17.15 61.32 17.43C61.61 17.72 61.94 17.94 62.33 18.11C62.72 18.27 63.14 18.36 63.59 18.36C64.09 18.36 64.53 18.27 64.92 18.11C65.33 17.94 65.66 17.73 65.93 17.46C66.22 17.17 66.44 16.83 66.59 16.44C66.74 16.05 66.81 15.63 66.81 15.18C66.81 14.24 66.53 13.47 65.96 12.89C65.39 12.3 64.61 12.01 63.62 12.01Z" fill="#262C39" fill-opacity="1.000000" fill-rule="evenodd"/>
	<path id="Vector" d="M69.85 9.85L72.8 9.85L75.68 17.41L75.72 17.41L78.63 9.85L81.39 9.85L77.14 20.65L74.26 20.65L69.85 9.85Z" fill="#262C39" fill-opacity="1.000000" fill-rule="evenodd"/>
	<path id="Vector" d="M88.61 19.17L88.54 19.17C88.15 19.78 87.66 20.23 87.06 20.52C86.46 20.79 85.79 20.92 85.07 20.92C84.58 20.92 84.09 20.85 83.61 20.72C83.15 20.58 82.73 20.38 82.35 20.11C81.99 19.84 81.7 19.5 81.47 19.1C81.25 18.69 81.14 18.22 81.14 17.68C81.14 17.1 81.24 16.6 81.45 16.2C81.66 15.78 81.94 15.43 82.28 15.16C82.64 14.88 83.06 14.65 83.52 14.49C83.99 14.32 84.47 14.2 84.96 14.13C85.47 14.04 85.98 13.98 86.49 13.97C87 13.94 87.48 13.92 87.93 13.92L88.61 13.92L88.61 13.63C88.61 12.96 88.38 12.45 87.91 12.12C87.45 11.78 86.85 11.6 86.13 11.6C85.56 11.6 85.03 11.71 84.53 11.92C84.04 12.12 83.61 12.39 83.25 12.73L81.83 11.31C82.43 10.7 83.13 10.25 83.93 9.98C84.74 9.71 85.57 9.58 86.43 9.58C87.19 9.58 87.84 9.67 88.36 9.85C88.89 10.01 89.32 10.23 89.67 10.5C90.01 10.77 90.27 11.09 90.45 11.45C90.65 11.79 90.78 12.14 90.86 12.51C90.95 12.87 91 13.22 91.02 13.56C91.03 13.89 91.04 14.19 91.04 14.44L91.04 20.65L88.61 20.65L88.61 19.17ZM88.45 15.81L87.89 15.81C87.51 15.81 87.09 15.83 86.63 15.86C86.16 15.89 85.72 15.96 85.3 16.08C84.89 16.19 84.55 16.35 84.26 16.58C83.98 16.79 83.84 17.09 83.84 17.48C83.84 17.73 83.89 17.95 83.99 18.13C84.11 18.3 84.26 18.44 84.44 18.56C84.62 18.68 84.83 18.77 85.05 18.83C85.28 18.87 85.5 18.9 85.73 18.9C86.66 18.9 87.34 18.68 87.78 18.24C88.23 17.79 88.45 17.19 88.45 16.42L88.45 15.81Z" fill="#262C39" fill-opacity="1.000000" fill-rule="evenodd"/>
	<path id="Vector" d="M92.82 9.85L95.39 9.85L95.39 11.58L95.43 11.58C95.69 11.04 96.08 10.58 96.6 10.19C97.13 9.78 97.84 9.58 98.74 9.58C99.46 9.58 100.07 9.7 100.56 9.94C101.07 10.18 101.49 10.49 101.8 10.88C102.12 11.27 102.34 11.73 102.48 12.23C102.61 12.75 102.68 13.28 102.68 13.83L102.68 20.65L99.98 20.65L99.98 15.18C99.98 14.88 99.96 14.55 99.93 14.19C99.9 13.82 99.82 13.47 99.68 13.16C99.56 12.83 99.37 12.56 99.1 12.35C98.83 12.12 98.46 12.01 98 12.01C97.55 12.01 97.16 12.08 96.85 12.23C96.55 12.39 96.29 12.59 96.08 12.84C95.89 13.1 95.75 13.39 95.66 13.72C95.57 14.05 95.52 14.4 95.52 14.76L95.52 20.65L92.82 20.65L92.82 9.85Z" fill="#262C39" fill-opacity="1.000000" fill-rule="evenodd"/>
	<path id="Vector" d="M106.78 16.2C106.87 17.01 107.18 17.64 107.72 18.09C108.27 18.54 108.92 18.76 109.68 18.76C110.36 18.76 110.92 18.63 111.37 18.36C111.84 18.07 112.24 17.72 112.59 17.3L114.52 18.76C113.89 19.54 113.19 20.1 112.41 20.43C111.63 20.76 110.81 20.92 109.95 20.92C109.14 20.92 108.38 20.79 107.66 20.52C106.94 20.25 106.31 19.86 105.79 19.37C105.26 18.87 104.84 18.28 104.53 17.59C104.23 16.89 104.08 16.11 104.08 15.25C104.08 14.4 104.23 13.62 104.53 12.93C104.84 12.23 105.26 11.63 105.79 11.13C106.31 10.64 106.94 10.25 107.66 9.98C108.38 9.71 109.14 9.58 109.95 9.58C110.7 9.58 111.39 9.71 112 9.98C112.63 10.24 113.16 10.61 113.6 11.11C114.05 11.6 114.39 12.22 114.63 12.96C114.89 13.68 115.02 14.51 115.02 15.45L115.02 16.2L106.78 16.2ZM112.32 14.17C112.3 13.38 112.05 12.75 111.57 12.3C111.09 11.84 110.43 11.6 109.57 11.6C108.76 11.6 108.11 11.84 107.63 12.3C107.17 12.77 106.88 13.39 106.78 14.17L112.32 14.17Z" fill="#262C39" fill-opacity="1.000000" fill-rule="evenodd"/>
	<path id="Vector" d="M119.21 14.85L115.47 9.85L118.76 9.85L120.92 13.09L123.26 9.85L126.34 9.85L122.65 14.85L127 20.65L123.71 20.65L120.9 16.78L118.06 20.65L114.86 20.65L119.21 14.85Z" fill="#262C39" fill-opacity="1.000000" fill-rule="evenodd"/>
	<linearGradient id="paint_linear_238_849_0" x1="-6.060749" y1="32.205524" x2="28.521183" y2="-5.406784" gradientUnits="userSpaceOnUse">
		<stop stop-color="#3A5FF7"/>
	</linearGradient>
	<path id="Vector" d="M0 11.7C0 5.2 5.26 -0.06 11.76 -0.06C18.26 -0.06 23.52 5.2 23.52 11.7L23.52 23.47L11.76 23.47C5.26 23.47 0 18.2 0 11.7Z" fill="url(#paint_linear_238_849_0)" fill-opacity="1.000000" fill-rule="nonzero"/>
</svg>
